<?xml version="1.0" encoding="UTF-8" standalone="no"?>
<!DOCTYPE svg PUBLIC "-//W3C//DTD SVG 1.1//EN" "http://www.w3.org/Graphics/SVG/1.1/DTD/svg11.dtd">
<svg xmlns:xlink="http://www.w3.org/1999/xlink" width="906.48pt" height="438.48pt" viewBox="0 0 906.48 438.48" xmlns="http://www.w3.org/2000/svg" version="1.1">
 <metadata>
  <rdf:RDF xmlns:dc="http://purl.org/dc/elements/1.1/" xmlns:cc="http://creativecommons.org/ns#" xmlns:rdf="http://www.w3.org/1999/02/22-rdf-syntax-ns#">
   <cc:Work>
    <dc:type rdf:resource="http://purl.org/dc/dcmitype/StillImage"/>
    <dc:date>2022-02-27T20:58:44.055248</dc:date>
    <dc:format>image/svg+xml</dc:format>
    <dc:creator>
     <cc:Agent>
      <dc:title>Matplotlib v3.5.1, https://matplotlib.org/</dc:title>
     </cc:Agent>
    </dc:creator>
   </cc:Work>
  </rdf:RDF>
 </metadata>
 <defs>
  <style type="text/css">*{stroke-linejoin: round; stroke-linecap: butt}</style>
 </defs>
 <g id="figure_1">
  <g id="patch_1">
   <path d="M 0 438.48  L 906.48 438.48  L 906.48 0  L 0 0  z " style="fill: #ffffff"/>
  </g>
  <g id="axes_1">
   <g id="patch_2">
    <path d="M 113.31 390.2472  L 815.832 390.2472  L 815.832 52.6176  L 113.31 52.6176  z " style="fill: #eeeeee"/>
   </g>
   <g id="matplotlib.axis_1">
    <g id="xtick_1">
     <g id="line2d_1">
      <path d="M 209.108455 390.2472  L 209.108455 52.6176  " clip-path="url(#p2157d5ad19)" style="fill: none; stroke-dasharray: 1.85,0.8; stroke-dashoffset: 0; stroke: #b2b2b2; stroke-width: 0.5"/>
     </g>
     <g id="line2d_2">
      <defs>
       <path id="m155e553985" d="M 0 0  L 0 -3.5  " style="stroke: #000000; stroke-width: 0.8"/>
      </defs>
      <g>
       <use xlink:href="#m155e553985" x="209.108455" y="390.2472" style="stroke: #000000; stroke-width: 0.8"/>
      </g>
     </g>
     <g id="text_1">
      <!-- −2 -->
      <g transform="translate(201.737361 401.345638)scale(0.1 -0.1)">
       <defs>
        <path id="DejaVuSans-2212" d="M 678 2272  L 4684 2272  L 4684 1741  L 678 1741  L 678 2272  z " transform="scale(0.015625)"/>
        <path id="DejaVuSans-32" d="M 1228 531  L 3431 531  L 3431 0  L 469 0  L 469 531  Q 828 903 1448 1529  Q 2069 2156 2228 2338  Q 2531 2678 2651 2914  Q 2772 3150 2772 3378  Q 2772 3750 2511 3984  Q 2250 4219 1831 4219  Q 1534 4219 1204 4116  Q 875 4013 500 3803  L 500 4441  Q 881 4594 1212 4672  Q 1544 4750 1819 4750  Q 2544 4750 2975 4387  Q 3406 4025 3406 3419  Q 3406 3131 3298 2873  Q 3191 2616 2906 2266  Q 2828 2175 2409 1742  Q 1991 1309 1228 531  z " transform="scale(0.015625)"/>
       </defs>
       <use xlink:href="#DejaVuSans-2212"/>
       <use xlink:href="#DejaVuSans-32" x="83.789062"/>
      </g>
     </g>
    </g>
    <g id="xtick_2">
     <g id="line2d_3">
      <path d="M 336.839727 390.2472  L 336.839727 52.6176  " clip-path="url(#p2157d5ad19)" style="fill: none; stroke-dasharray: 1.85,0.8; stroke-dashoffset: 0; stroke: #b2b2b2; stroke-width: 0.5"/>
     </g>
     <g id="line2d_4">
      <g>
       <use xlink:href="#m155e553985" x="336.839727" y="390.2472" style="stroke: #000000; stroke-width: 0.8"/>
      </g>
     </g>
     <g id="text_2">
      <!-- −1 -->
      <g transform="translate(329.468634 401.345638)scale(0.1 -0.1)">
       <defs>
        <path id="DejaVuSans-31" d="M 794 531  L 1825 531  L 1825 4091  L 703 3866  L 703 4441  L 1819 4666  L 2450 4666  L 2450 531  L 3481 531  L 3481 0  L 794 0  L 794 531  z " transform="scale(0.015625)"/>
       </defs>
       <use xlink:href="#DejaVuSans-2212"/>
       <use xlink:href="#DejaVuSans-31" x="83.789062"/>
      </g>
     </g>
    </g>
    <g id="xtick_3">
     <g id="line2d_5">
      <path d="M 464.571 390.2472  L 464.571 52.6176  " clip-path="url(#p2157d5ad19)" style="fill: none; stroke-dasharray: 1.85,0.8; stroke-dashoffset: 0; stroke: #b2b2b2; stroke-width: 0.5"/>
     </g>
     <g id="line2d_6">
      <g>
       <use xlink:href="#m155e553985" x="464.571" y="390.2472" style="stroke: #000000; stroke-width: 0.8"/>
      </g>
     </g>
     <g id="text_3">
      <!-- 0 -->
      <g transform="translate(461.38975 401.345638)scale(0.1 -0.1)">
       <defs>
        <path id="DejaVuSans-30" d="M 2034 4250  Q 1547 4250 1301 3770  Q 1056 3291 1056 2328  Q 1056 1369 1301 889  Q 1547 409 2034 409  Q 2525 409 2770 889  Q 3016 1369 3016 2328  Q 3016 3291 2770 3770  Q 2525 4250 2034 4250  z M 2034 4750  Q 2819 4750 3233 4129  Q 3647 3509 3647 2328  Q 3647 1150 3233 529  Q 2819 -91 2034 -91  Q 1250 -91 836 529  Q 422 1150 422 2328  Q 422 3509 836 4129  Q 1250 4750 2034 4750  z " transform="scale(0.015625)"/>
       </defs>
       <use xlink:href="#DejaVuSans-30"/>
      </g>
     </g>
    </g>
    <g id="xtick_4">
     <g id="line2d_7">
      <path d="M 592.302273 390.2472  L 592.302273 52.6176  " clip-path="url(#p2157d5ad19)" style="fill: none; stroke-dasharray: 1.85,0.8; stroke-dashoffset: 0; stroke: #b2b2b2; stroke-width: 0.5"/>
     </g>
     <g id="line2d_8">
      <g>
       <use xlink:href="#m155e553985" x="592.302273" y="390.2472" style="stroke: #000000; stroke-width: 0.8"/>
      </g>
     </g>
     <g id="text_4">
      <!-- 1 -->
      <g transform="translate(589.121023 401.345638)scale(0.1 -0.1)">
       <use xlink:href="#DejaVuSans-31"/>
      </g>
     </g>
    </g>
    <g id="xtick_5">
     <g id="line2d_9">
      <path d="M 720.033545 390.2472  L 720.033545 52.6176  " clip-path="url(#p2157d5ad19)" style="fill: none; stroke-dasharray: 1.85,0.8; stroke-dashoffset: 0; stroke: #b2b2b2; stroke-width: 0.5"/>
     </g>
     <g id="line2d_10">
      <g>
       <use xlink:href="#m155e553985" x="720.033545" y="390.2472" style="stroke: #000000; stroke-width: 0.8"/>
      </g>
     </g>
     <g id="text_5">
      <!-- 2 -->
      <g transform="translate(716.852295 401.345638)scale(0.1 -0.1)">
       <use xlink:href="#DejaVuSans-32"/>
      </g>
     </g>
    </g>
   </g>
   <g id="matplotlib.axis_2">
    <g id="ytick_1">
     <g id="line2d_11">
      <path d="M 113.31 343.347884  L 815.832 343.347884  " clip-path="url(#p2157d5ad19)" style="fill: none; stroke-dasharray: 1.85,0.8; stroke-dashoffset: 0; stroke: #b2b2b2; stroke-width: 0.5"/>
     </g>
     <g id="line2d_12">
      <defs>
       <path id="md7e2e4609d" d="M 0 0  L 3.5 0  " style="stroke: #000000; stroke-width: 0.8"/>
      </defs>
      <g>
       <use xlink:href="#md7e2e4609d" x="113.31" y="343.347884" style="stroke: #000000; stroke-width: 0.8"/>
      </g>
     </g>
     <g id="text_6">
      <!-- 0.0 -->
      <g transform="translate(93.906875 347.147103)scale(0.1 -0.1)">
       <defs>
        <path id="DejaVuSans-2e" d="M 684 794  L 1344 794  L 1344 0  L 684 0  L 684 794  z " transform="scale(0.015625)"/>
       </defs>
       <use xlink:href="#DejaVuSans-30"/>
       <use xlink:href="#DejaVuSans-2e" x="63.623047"/>
       <use xlink:href="#DejaVuSans-30" x="95.410156"/>
      </g>
     </g>
    </g>
    <g id="ytick_2">
     <g id="line2d_13">
      <path d="M 113.31 295.124414  L 815.832 295.124414  " clip-path="url(#p2157d5ad19)" style="fill: none; stroke-dasharray: 1.85,0.8; stroke-dashoffset: 0; stroke: #b2b2b2; stroke-width: 0.5"/>
     </g>
     <g id="line2d_14">
      <g>
       <use xlink:href="#md7e2e4609d" x="113.31" y="295.124414" style="stroke: #000000; stroke-width: 0.8"/>
      </g>
     </g>
     <g id="text_7">
      <!-- 0.2 -->
      <g transform="translate(93.906875 298.923633)scale(0.1 -0.1)">
       <use xlink:href="#DejaVuSans-30"/>
       <use xlink:href="#DejaVuSans-2e" x="63.623047"/>
       <use xlink:href="#DejaVuSans-32" x="95.410156"/>
      </g>
     </g>
    </g>
    <g id="ytick_3">
     <g id="line2d_15">
      <path d="M 113.31 246.900944  L 815.832 246.900944  " clip-path="url(#p2157d5ad19)" style="fill: none; stroke-dasharray: 1.85,0.8; stroke-dashoffset: 0; stroke: #b2b2b2; stroke-width: 0.5"/>
     </g>
     <g id="line2d_16">
      <g>
       <use xlink:href="#md7e2e4609d" x="113.31" y="246.900944" style="stroke: #000000; stroke-width: 0.8"/>
      </g>
     </g>
     <g id="text_8">
      <!-- 0.4 -->
      <g transform="translate(93.906875 250.700163)scale(0.1 -0.1)">
       <defs>
        <path id="DejaVuSans-34" d="M 2419 4116  L 825 1625  L 2419 1625  L 2419 4116  z M 2253 4666  L 3047 4666  L 3047 1625  L 3713 1625  L 3713 1100  L 3047 1100  L 3047 0  L 2419 0  L 2419 1100  L 313 1100  L 313 1709  L 2253 4666  z " transform="scale(0.015625)"/>
       </defs>
       <use xlink:href="#DejaVuSans-30"/>
       <use xlink:href="#DejaVuSans-2e" x="63.623047"/>
       <use xlink:href="#DejaVuSans-34" x="95.410156"/>
      </g>
     </g>
    </g>
    <g id="ytick_4">
     <g id="line2d_17">
      <path d="M 113.31 198.677474  L 815.832 198.677474  " clip-path="url(#p2157d5ad19)" style="fill: none; stroke-dasharray: 1.85,0.8; stroke-dashoffset: 0; stroke: #b2b2b2; stroke-width: 0.5"/>
     </g>
     <g id="line2d_18">
      <g>
       <use xlink:href="#md7e2e4609d" x="113.31" y="198.677474" style="stroke: #000000; stroke-width: 0.8"/>
      </g>
     </g>
     <g id="text_9">
      <!-- 0.6 -->
      <g transform="translate(93.906875 202.476693)scale(0.1 -0.1)">
       <defs>
        <path id="DejaVuSans-36" d="M 2113 2584  Q 1688 2584 1439 2293  Q 1191 2003 1191 1497  Q 1191 994 1439 701  Q 1688 409 2113 409  Q 2538 409 2786 701  Q 3034 994 3034 1497  Q 3034 2003 2786 2293  Q 2538 2584 2113 2584  z M 3366 4563  L 3366 3988  Q 3128 4100 2886 4159  Q 2644 4219 2406 4219  Q 1781 4219 1451 3797  Q 1122 3375 1075 2522  Q 1259 2794 1537 2939  Q 1816 3084 2150 3084  Q 2853 3084 3261 2657  Q 3669 2231 3669 1497  Q 3669 778 3244 343  Q 2819 -91 2113 -91  Q 1303 -91 875 529  Q 447 1150 447 2328  Q 447 3434 972 4092  Q 1497 4750 2381 4750  Q 2619 4750 2861 4703  Q 3103 4656 3366 4563  z " transform="scale(0.015625)"/>
       </defs>
       <use xlink:href="#DejaVuSans-30"/>
       <use xlink:href="#DejaVuSans-2e" x="63.623047"/>
       <use xlink:href="#DejaVuSans-36" x="95.410156"/>
      </g>
     </g>
    </g>
    <g id="ytick_5">
     <g id="line2d_19">
      <path d="M 113.31 150.454004  L 815.832 150.454004  " clip-path="url(#p2157d5ad19)" style="fill: none; stroke-dasharray: 1.85,0.8; stroke-dashoffset: 0; stroke: #b2b2b2; stroke-width: 0.5"/>
     </g>
     <g id="line2d_20">
      <g>
       <use xlink:href="#md7e2e4609d" x="113.31" y="150.454004" style="stroke: #000000; stroke-width: 0.8"/>
      </g>
     </g>
     <g id="text_10">
      <!-- 0.8 -->
      <g transform="translate(93.906875 154.253223)scale(0.1 -0.1)">
       <defs>
        <path id="DejaVuSans-38" d="M 2034 2216  Q 1584 2216 1326 1975  Q 1069 1734 1069 1313  Q 1069 891 1326 650  Q 1584 409 2034 409  Q 2484 409 2743 651  Q 3003 894 3003 1313  Q 3003 1734 2745 1975  Q 2488 2216 2034 2216  z M 1403 2484  Q 997 2584 770 2862  Q 544 3141 544 3541  Q 544 4100 942 4425  Q 1341 4750 2034 4750  Q 2731 4750 3128 4425  Q 3525 4100 3525 3541  Q 3525 3141 3298 2862  Q 3072 2584 2669 2484  Q 3125 2378 3379 2068  Q 3634 1759 3634 1313  Q 3634 634 3220 271  Q 2806 -91 2034 -91  Q 1263 -91 848 271  Q 434 634 434 1313  Q 434 1759 690 2068  Q 947 2378 1403 2484  z M 1172 3481  Q 1172 3119 1398 2916  Q 1625 2713 2034 2713  Q 2441 2713 2670 2916  Q 2900 3119 2900 3481  Q 2900 3844 2670 4047  Q 2441 4250 2034 4250  Q 1625 4250 1398 4047  Q 1172 3844 1172 3481  z " transform="scale(0.015625)"/>
       </defs>
       <use xlink:href="#DejaVuSans-30"/>
       <use xlink:href="#DejaVuSans-2e" x="63.623047"/>
       <use xlink:href="#DejaVuSans-38" x="95.410156"/>
      </g>
     </g>
    </g>
    <g id="ytick_6">
     <g id="line2d_21">
      <path d="M 113.31 102.230534  L 815.832 102.230534  " clip-path="url(#p2157d5ad19)" style="fill: none; stroke-dasharray: 1.85,0.8; stroke-dashoffset: 0; stroke: #b2b2b2; stroke-width: 0.5"/>
     </g>
     <g id="line2d_22">
      <g>
       <use xlink:href="#md7e2e4609d" x="113.31" y="102.230534" style="stroke: #000000; stroke-width: 0.8"/>
      </g>
     </g>
     <g id="text_11">
      <!-- 1.0 -->
      <g transform="translate(93.906875 106.029753)scale(0.1 -0.1)">
       <use xlink:href="#DejaVuSans-31"/>
       <use xlink:href="#DejaVuSans-2e" x="63.623047"/>
       <use xlink:href="#DejaVuSans-30" x="95.410156"/>
      </g>
     </g>
    </g>
    <g id="ytick_7">
     <g id="line2d_23">
      <path d="M 113.31 54.007065  L 815.832 54.007065  " clip-path="url(#p2157d5ad19)" style="fill: none; stroke-dasharray: 1.85,0.8; stroke-dashoffset: 0; stroke: #b2b2b2; stroke-width: 0.5"/>
     </g>
     <g id="line2d_24">
      <g>
       <use xlink:href="#md7e2e4609d" x="113.31" y="54.007065" style="stroke: #000000; stroke-width: 0.8"/>
      </g>
     </g>
     <g id="text_12">
      <!-- 1.2 -->
      <g transform="translate(93.906875 57.806283)scale(0.1 -0.1)">
       <use xlink:href="#DejaVuSans-31"/>
       <use xlink:href="#DejaVuSans-2e" x="63.623047"/>
       <use xlink:href="#DejaVuSans-32" x="95.410156"/>
      </g>
     </g>
    </g>
   </g>
   <g id="line2d_25">
    <path d="M 145.242818 343.347884  L 207.186078 343.347884  L 209.322052 102.230534  L 335.344545 102.230534  L 337.48052 343.347884  L 463.503013 343.347884  L 465.638987 102.230534  L 591.66148 102.230534  L 593.797455 343.347884  L 719.819948 343.347884  L 721.955922 102.230534  L 783.899182 102.230534  L 783.899182 102.230534  " clip-path="url(#p2157d5ad19)" style="fill: none; stroke: #348abd; stroke-width: 2; stroke-linecap: square"/>
   </g>
   <g id="line2d_26">
    <path d="M 145.242818 221.4324  L 783.899182 221.4324  L 783.899182 221.4324  " clip-path="url(#p2157d5ad19)" style="fill: none; stroke: #a60628; stroke-width: 2; stroke-linecap: square"/>
   </g>
   <g id="line2d_27">
    <path d="M 145.242818 374.9004  L 147.378793 374.688669  L 149.514767 374.054059  L 151.650742 372.998321  L 153.786716 371.524369  L 155.92269 369.636269  L 158.058665 367.339232  L 160.194639 364.639596  L 162.330614 361.544809  L 164.466588 358.063411  L 166.602563 354.205009  L 168.738537 349.980248  L 170.874512 345.400787  L 173.010486 340.47926  L 175.146461 335.229249  L 179.41841 323.802583  L 183.690358 311.246821  L 187.962307 297.700445  L 192.234256 283.312867  L 196.506205 268.242776  L 202.914129 244.723133  L 222.137899 173.088988  L 226.409848 158.079778  L 230.681797 143.76932  L 234.953746 130.31545  L 239.225694 117.866559  L 243.497643 106.559952  L 245.633618 101.374508  L 247.769592 96.520338  L 249.905567 92.010836  L 252.041541 87.858446  L 254.177516 84.074626  L 256.31349 80.669816  L 258.449465 77.653411  L 260.585439 75.033733  L 262.721413 72.818013  L 264.857388 71.012362  L 266.993362 69.621765  L 269.129337 68.650056  L 271.265311 68.099919  L 273.401286 67.972871  L 275.53726 68.269262  L 277.673235 68.988275  L 279.809209 70.127926  L 281.945184 71.68507  L 284.081158 73.65541  L 286.217133 76.03351  L 288.353107 78.812807  L 290.489081 81.985634  L 292.625056 85.543235  L 294.76103 89.475793  L 296.897005 93.772458  L 299.032979 98.421375  L 301.168954 103.409714  L 303.304928 108.723712  L 307.576877 120.269176  L 311.848826 132.930424  L 316.120775 146.56781  L 320.392724 161.030918  L 324.664673 176.160227  L 331.072596 199.736734  L 348.160392 263.613342  L 352.432341 278.856071  L 356.70429 293.465442  L 360.976239 307.280321  L 365.248188 320.148336  L 369.520137 331.927559  L 371.656111 337.367764  L 373.792085 342.48807  L 375.92806 347.274348  L 378.064034 351.713392  L 380.200009 355.792952  L 382.335983 359.501773  L 384.471958 362.829619  L 386.607932 365.76731  L 388.743907 368.306739  L 390.879881 370.440899  L 393.015856 372.163901  L 395.15183 373.470991  L 397.287804 374.358562  L 399.423779 374.824165  L 401.559753 374.866516  L 403.695728 374.485498  L 405.831702 373.682162  L 407.967677 372.458724  L 410.103651 370.81856  L 412.239626 368.766197  L 414.3756 366.307297  L 416.511575 363.448645  L 418.647549 360.198129  L 420.783524 356.564718  L 422.919498 352.558437  L 425.055472 348.190342  L 427.191447 343.472484  L 429.327421 338.417883  L 431.463396 333.040484  L 435.735345 321.377497  L 440.007294 308.612161  L 444.279243 294.885271  L 448.551192 280.348228  L 454.959115 257.376377  L 463.503013 225.463157  L 474.182885 185.488423  L 480.590808 162.516572  L 484.862757 147.979529  L 489.134706 134.252639  L 493.406655 121.487303  L 497.678604 109.824316  L 499.814579 104.446917  L 501.950553 99.392316  L 504.086528 94.674458  L 506.222502 90.306363  L 508.358476 86.300082  L 510.494451 82.666671  L 512.630425 79.416155  L 514.7664 76.557503  L 516.902374 74.098603  L 519.038349 72.04624  L 521.174323 70.406076  L 523.310298 69.182638  L 525.446272 68.379302  L 527.582247 67.998284  L 529.718221 68.040635  L 531.854196 68.506238  L 533.99017 69.393809  L 536.126144 70.700899  L 538.262119 72.423901  L 540.398093 74.558061  L 542.534068 77.09749  L 544.670042 80.035181  L 546.806017 83.363027  L 548.941991 87.071848  L 551.077966 91.151408  L 553.21394 95.590452  L 555.349915 100.37673  L 557.485889 105.497036  L 559.621863 110.937241  L 563.893812 122.716464  L 568.165761 135.584479  L 572.43771 149.399358  L 576.709659 164.008729  L 583.117583 187.058016  L 591.66148 219.013768  L 602.341353 258.942002  L 608.749276 281.833882  L 613.021225 296.29699  L 617.293174 309.934376  L 621.565123 322.595624  L 625.837072 334.141088  L 627.973046 339.455086  L 630.109021 344.443425  L 632.244995 349.092342  L 634.38097 353.389007  L 636.516944 357.321565  L 638.652919 360.879166  L 640.788893 364.051993  L 642.924867 366.83129  L 645.060842 369.20939  L 647.196816 371.17973  L 649.332791 372.736874  L 651.468765 373.876525  L 653.60474 374.595538  L 655.740714 374.891929  L 657.876689 374.764881  L 660.012663 374.214744  L 662.148638 373.243035  L 664.284612 371.852438  L 666.420587 370.046787  L 668.556561 367.831067  L 670.692535 365.211389  L 672.82851 362.194984  L 674.964484 358.790174  L 677.100459 355.006354  L 679.236433 350.853964  L 681.372408 346.344462  L 683.508382 341.490292  L 685.644357 336.304848  L 689.916306 324.998241  L 694.188254 312.54935  L 698.460203 299.09548  L 702.732152 284.785022  L 707.004101 269.775812  L 713.412025 246.315628  L 732.635795 174.622024  L 736.907744 159.551933  L 741.179693 145.164355  L 745.451642 131.617979  L 749.72359 119.062217  L 753.995539 107.635551  L 756.131514 102.38554  L 758.267488 97.464013  L 760.403463 92.884552  L 762.539437 88.659791  L 764.675412 84.801389  L 766.811386 81.319991  L 768.947361 78.225204  L 771.083335 75.525568  L 773.21931 73.228531  L 775.355284 71.340431  L 777.491258 69.866479  L 779.627233 68.810741  L 781.763207 68.176131  L 783.899182 67.9644  L 783.899182 67.9644  " clip-path="url(#p2157d5ad19)" style="fill: none; stroke: #7a68a6; stroke-width: 2; stroke-linecap: square"/>
   </g>
   <g id="line2d_28">
    <path d="M 145.242818 323.829991  L 147.378793 324.251225  L 149.514767 325.499822  L 151.650742 327.530851  L 153.786716 330.270712  L 155.92269 333.619019  L 158.058665 337.451183  L 162.330614 345.967457  L 166.602563 354.473306  L 168.738537 358.26078  L 170.874512 361.488296  L 173.010486 363.97497  L 175.146461 365.550749  L 177.282435 366.060921  L 179.41841 365.370273  L 181.554384 363.366777  L 183.690358 359.964728  L 185.826333 355.107237  L 187.962307 348.768035  L 190.098282 340.952526  L 192.234256 331.698074  L 194.370231 321.073504  L 196.506205 309.177847  L 198.64218 296.138329  L 200.778154 282.107687  L 205.050103 251.791088  L 215.729975 172.578331  L 217.86595 157.879801  L 220.001924 144.034048  L 222.137899 131.211855  L 224.273873 119.561105  L 226.409848 109.203579  L 228.545822 100.232402  L 230.681797 92.710186  L 232.817771 86.667917  L 234.953746 82.104616  L 237.08972 78.987781  L 239.225694 77.254594  L 241.361669 76.813863  L 243.497643 77.548653  L 245.633618 79.319542  L 247.769592 81.968402  L 249.905567 85.322644  L 252.041541 89.199784  L 256.31349 97.772255  L 260.585439 106.212044  L 262.721413 109.958462  L 264.857388 113.194315  L 266.993362 115.799616  L 269.129337 117.679152  L 271.265311 118.764928  L 273.401286 119.017911  L 275.53726 118.429031  L 277.673235 117.019415  L 279.809209 114.839842  L 281.945184 111.969446  L 284.081158 108.513678  L 286.217133 104.601605  L 294.76103 87.598128  L 296.897005 83.907814  L 299.032979 80.814275  L 301.168954 78.496603  L 303.304928 77.122136  L 305.440903 76.842003  L 307.576877 77.787059  L 309.712852 80.0643  L 311.848826 83.753844  L 313.984801 88.906579  L 316.120775 95.542498  L 318.256749 103.649804  L 320.392724 113.184775  L 322.528698 124.07242  L 324.664673 136.207888  L 326.800647 149.458611  L 328.936622 163.667131  L 333.208571 194.224371  L 343.888443 273.285523  L 346.024417 287.828138  L 348.160392 301.48216  L 350.296366 314.081101  L 352.432341 325.482065  L 354.568315 335.568817  L 356.70429 344.254209  L 358.840264 351.481892  L 360.976239 357.227269  L 363.112213 361.497685  L 365.248188 364.331824  L 367.384162 365.798359  L 369.520137 365.993861  L 371.656111 365.04004  L 373.792085 363.080381  L 375.92806 360.276253  L 378.064034 356.8026  L 380.200009 352.843312  L 388.743907 335.869143  L 390.879881 332.214149  L 393.015856 329.095559  L 395.15183 326.628634  L 397.287804 324.903317  L 399.423779 323.981926  L 401.559753 323.897558  L 403.695728 324.653237  L 405.831702 326.221838  L 407.967677 328.546782  L 410.103651 331.543488  L 412.239626 335.101542  L 414.3756 339.087538  L 422.919498 356.043605  L 425.055472 359.629299  L 427.191447 362.581682  L 429.327421 364.723643  L 431.463396 365.890741  L 433.59937 365.935589  L 435.735345 364.731835  L 437.871319 362.177638  L 440.007294 358.198556  L 442.143268 352.749775  L 444.279243 345.81761  L 446.415217 337.420259  L 448.551192 327.607773  L 450.687166 316.461253  L 452.82314 304.091288  L 454.959115 290.635669  L 459.231064 261.136355  L 465.638987 213.381332  L 469.910936 181.728445  L 474.182885 152.229131  L 476.31886 138.773512  L 478.454834 126.403547  L 480.590808 115.257027  L 482.726783 105.444541  L 484.862757 97.04719  L 486.998732 90.115025  L 489.134706 84.666244  L 491.270681 80.687162  L 493.406655 78.132965  L 495.54263 76.929211  L 497.678604 76.974059  L 499.814579 78.141157  L 501.950553 80.283118  L 504.086528 83.235501  L 506.222502 86.821195  L 508.358476 90.855094  L 514.7664 103.777262  L 516.902374 107.763258  L 519.038349 111.321312  L 521.174323 114.318018  L 523.310298 116.642962  L 525.446272 118.211563  L 527.582247 118.967242  L 529.718221 118.882874  L 531.854196 117.961483  L 533.99017 116.236166  L 536.126144 113.769241  L 538.262119 110.650651  L 540.398093 106.995657  L 542.534068 102.94187  L 548.941991 90.021488  L 551.077966 86.0622  L 553.21394 82.588547  L 555.349915 79.784419  L 557.485889 77.82476  L 559.621863 76.870939  L 561.757838 77.066441  L 563.893812 78.532976  L 566.029787 81.367115  L 568.165761 85.637531  L 570.301736 91.382908  L 572.43771 98.610591  L 574.573685 107.295983  L 576.709659 117.382735  L 578.845634 128.783699  L 580.981608 141.38264  L 583.117583 155.036662  L 587.389531 184.82406  L 593.797455 232.69768  L 598.069404 264.210274  L 602.341353 293.406189  L 604.477327 306.656912  L 606.613302 318.79238  L 608.749276 329.680025  L 610.885251 339.214996  L 613.021225 347.322302  L 615.157199 353.958221  L 617.293174 359.110956  L 619.429148 362.8005  L 621.565123 365.077741  L 623.701097 366.022797  L 625.837072 365.742664  L 627.973046 364.368197  L 630.109021 362.050525  L 632.244995 358.956986  L 634.38097 355.266672  L 638.652919 346.842377  L 642.924867 338.263195  L 645.060842 334.351122  L 647.196816 330.895354  L 649.332791 328.024958  L 651.468765 325.845385  L 653.60474 324.435769  L 655.740714 323.846889  L 657.876689 324.099872  L 660.012663 325.185648  L 662.148638 327.065184  L 664.284612 329.670485  L 666.420587 332.906338  L 668.556561 336.652756  L 672.82851 345.092545  L 677.100459 353.665016  L 679.236433 357.542156  L 681.372408 360.896398  L 683.508382 363.545258  L 685.644357 365.316147  L 687.780331 366.050937  L 689.916306 365.610206  L 692.05228 363.877019  L 694.188254 360.760184  L 696.324229 356.196883  L 698.460203 350.154614  L 700.596178 342.632398  L 702.732152 333.661221  L 704.868127 323.303695  L 707.004101 311.652945  L 709.140076 298.830752  L 711.27605 284.984999  L 715.547999 254.92509  L 728.363846 160.757113  L 730.49982 146.726471  L 732.635795 133.686953  L 734.771769 121.791296  L 736.907744 111.166726  L 739.043718 101.912274  L 741.179693 94.096765  L 743.315667 87.757563  L 745.451642 82.900072  L 747.587616 79.498023  L 749.72359 77.494527  L 751.859565 76.803879  L 753.995539 77.314051  L 756.131514 78.88983  L 758.267488 81.376504  L 760.403463 84.60402  L 762.539437 88.391494  L 766.811386 96.897343  L 771.083335 105.413617  L 773.21931 109.245781  L 775.355284 112.594088  L 777.491258 115.333949  L 779.627233 117.364978  L 781.763207 118.613575  L 783.899182 119.034809  L 783.899182 119.034809  " clip-path="url(#p2157d5ad19)" style="fill: none; stroke: #467821; stroke-width: 2; stroke-linecap: square"/>
   </g>
   <g id="line2d_29">
    <path d="M 145.242818 349.431097  L 147.378793 348.416578  L 149.514767 345.639318  L 153.786716 338.003851  L 155.92269 335.191883  L 158.058665 334.183655  L 160.194639 335.310764  L 162.330614 338.347233  L 166.602563 346.81806  L 168.738537 349.985807  L 170.874512 351.100012  L 173.010486 349.695837  L 175.146461 345.951889  L 179.41841 335.25346  L 181.554384 331.144916  L 183.690358 329.723148  L 185.826333 331.798302  L 187.962307 337.354302  L 190.098282 345.420604  L 192.234256 354.14017  L 194.370231 361.033423  L 196.506205 363.416204  L 198.64218 358.895259  L 200.778154 345.845343  L 202.914129 323.771914  L 205.050103 293.483244  L 207.186078 257.031703  L 211.458026 178.183821  L 213.594001 142.748882  L 215.729975 113.976124  L 217.86595 93.685093  L 220.001924 82.420578  L 222.137899 79.441186  L 224.273873 82.934115  L 226.409848 90.407729  L 228.545822 99.180317  L 230.681797 106.867384  L 232.817771 111.773993  L 234.953746 113.121605  L 237.08972 111.075454  L 239.225694 106.580701  L 241.361669 101.054451  L 243.497643 96.008151  L 245.633618 92.685423  L 247.769592 91.792362  L 249.905567 93.373121  L 252.041541 96.848868  L 254.177516 101.201034  L 256.31349 105.248273  L 258.449465 107.947585  L 260.585439 108.647499  L 262.721413 107.235099  L 264.857388 104.145553  L 266.993362 100.236107  L 269.129337 96.558633  L 271.265311 94.088258  L 273.401286 93.475165  L 275.53726 94.880237  L 277.673235 97.9345  L 281.945184 105.534923  L 284.081158 108.037075  L 286.217133 108.627533  L 288.353107 107.082391  L 290.489081 103.739154  L 294.76103 95.289454  L 296.897005 92.468606  L 299.032979 91.840075  L 301.168954 93.748247  L 303.304928 97.879755  L 307.576877 108.588035  L 309.712852 112.255072  L 311.848826 113.01911  L 313.984801 110.216629  L 316.120775 104.050278  L 320.392724 87.113895  L 322.528698 80.909997  L 324.664673 79.734662  L 326.800647 85.863364  L 328.936622 100.719032  L 331.072596 124.542337  L 333.208571 156.263891  L 335.344545 193.610056  L 339.616494 272.17588  L 341.752469 306.478717  L 343.888443 333.661989  L 346.024417 352.148797  L 348.160392 361.658273  L 350.296366 363.169916  L 352.432341 358.668112  L 354.568315 350.723005  L 356.70429 341.994061  L 358.840264 334.754769  L 360.976239 330.528776  L 363.112213 329.901551  L 365.248188 332.53326  L 367.384162 337.356292  L 369.520137 342.903731  L 371.656111 347.690682  L 373.792085 350.563542  L 375.92806 350.943854  L 378.064034 348.920302  L 380.200009 345.178216  L 382.335983 340.792717  L 384.471958 336.941037  L 386.607932 334.605425  L 388.743907 334.337254  L 390.879881 336.136  L 393.015856 339.46808  L 395.15183 343.416786  L 397.287804 346.923655  L 399.423779 349.060595  L 401.559753 349.265691  L 403.695728 347.485133  L 405.831702 344.186774  L 407.967677 340.242045  L 410.103651 336.704898  L 412.239626 334.541647  L 414.3756 334.378161  L 416.511575 336.327619  L 418.647549 339.943673  L 420.783524 344.314432  L 422.919498 348.278902  L 425.055472 350.717147  L 427.191447 350.845798  L 429.327421 348.446245  L 431.463396 343.965587  L 433.59937 338.457505  L 435.735345 333.366128  L 437.871319 330.19265  L 440.007294 330.113737  L 442.143268 333.635744  L 444.279243 340.365702  L 448.551192 357.267531  L 450.687166 362.673773  L 452.82314 362.549125  L 454.959115 354.754664  L 457.095089 338.083194  L 459.231064 312.553132  L 461.367038 279.490707  L 467.774962 163.374093  L 469.910936 130.311668  L 472.046911 104.781606  L 474.182885 88.110136  L 476.31886 80.315675  L 478.454834 80.191027  L 480.590808 85.597269  L 484.862757 102.499098  L 486.998732 109.229056  L 489.134706 112.751063  L 491.270681 112.67215  L 493.406655 109.498672  L 495.54263 104.407295  L 497.678604 98.899213  L 499.814579 94.418555  L 501.950553 92.019002  L 504.086528 92.147653  L 506.222502 94.585898  L 508.358476 98.550368  L 510.494451 102.921127  L 512.630425 106.537181  L 514.7664 108.486639  L 516.902374 108.323153  L 519.038349 106.159902  L 521.174323 102.622755  L 523.310298 98.678026  L 525.446272 95.379667  L 527.582247 93.599109  L 529.718221 93.804205  L 531.854196 95.941145  L 533.99017 99.448014  L 536.126144 103.39672  L 538.262119 106.7288  L 540.398093 108.527546  L 542.534068 108.259375  L 544.670042 105.923763  L 546.806017 102.072083  L 548.941991 97.686584  L 551.077966 93.944498  L 553.21394 91.920946  L 555.349915 92.301258  L 557.485889 95.174118  L 559.621863 99.961069  L 561.757838 105.508508  L 563.893812 110.33154  L 566.029787 112.963249  L 568.165761 112.336024  L 570.301736 108.110031  L 572.43771 100.870739  L 574.573685 92.141795  L 576.709659 84.196688  L 578.845634 79.694884  L 580.981608 81.206527  L 583.117583 90.716003  L 585.253557 109.202811  L 587.389531 136.386083  L 589.525506 170.68892  L 595.933429 286.600909  L 598.069404 318.322463  L 600.205378 342.145768  L 602.341353 357.001436  L 604.477327 363.130138  L 606.613302 361.954803  L 608.749276 355.750905  L 613.021225 338.814522  L 615.157199 332.648171  L 617.293174 329.84569  L 619.429148 330.609728  L 621.565123 334.276765  L 625.837072 344.985045  L 627.973046 349.116553  L 630.109021 351.024725  L 632.244995 350.396194  L 634.38097 347.575346  L 638.652919 339.125646  L 640.788893 335.782409  L 642.924867 334.237267  L 645.060842 334.827725  L 647.196816 337.329877  L 651.468765 344.9303  L 653.60474 347.984563  L 655.740714 349.389635  L 657.876689 348.776542  L 660.012663 346.306167  L 662.148638 342.628693  L 664.284612 338.719247  L 666.420587 335.629701  L 668.556561 334.217301  L 670.692535 334.917215  L 672.82851 337.616527  L 674.964484 341.663766  L 677.100459 346.015932  L 679.236433 349.491679  L 681.372408 351.072438  L 683.508382 350.179377  L 685.644357 346.856649  L 687.780331 341.810349  L 689.916306 336.284099  L 692.05228 331.789346  L 694.188254 329.743195  L 696.324229 331.090807  L 698.460203 335.997416  L 700.596178 343.684483  L 702.732152 352.457071  L 704.868127 359.930685  L 707.004101 363.423614  L 709.140076 360.444222  L 711.27605 349.179707  L 713.412025 328.888676  L 715.547999 300.115918  L 717.683974 264.680979  L 721.955922 185.833097  L 724.091897 149.381556  L 726.227871 119.092886  L 728.363846 97.019457  L 730.49982 83.969541  L 732.635795 79.448596  L 734.771769 81.831377  L 736.907744 88.72463  L 739.043718 97.444196  L 741.179693 105.510498  L 743.315667 111.066498  L 745.451642 113.141652  L 747.587616 111.719884  L 749.72359 107.61134  L 753.995539 96.912911  L 756.131514 93.168963  L 758.267488 91.764788  L 760.403463 92.878993  L 762.539437 96.04674  L 766.811386 104.517567  L 768.947361 107.554036  L 771.083335 108.681145  L 773.21931 107.672917  L 775.355284 104.860949  L 779.627233 97.225482  L 781.763207 94.448222  L 783.899182 93.433703  L 783.899182 93.433703  " clip-path="url(#p2157d5ad19)" style="fill: none; stroke: #d55e00; stroke-width: 2; stroke-linecap: square"/>
   </g>
   <g id="line2d_30">
    <path d="M 145.242818 338.495089  L 147.378793 340.260795  L 149.514767 343.7889  L 151.650742 345.529918  L 153.786716 343.694975  L 155.92269 340.07764  L 158.058665 338.318272  L 160.194639 340.274351  L 162.330614 344.081966  L 164.466588 345.906822  L 166.602563 343.762284  L 168.738537 339.635608  L 170.874512 337.686742  L 173.010486 340.116196  L 175.146461 344.745458  L 177.282435 346.900438  L 179.41841 344.033131  L 181.554384 338.608256  L 183.690358 336.116726  L 185.826333 339.695108  L 187.962307 346.450231  L 190.098282 349.517502  L 192.234256 344.651656  L 194.370231 335.38891  L 196.506205 331.210879  L 198.64218 338.976637  L 200.778154 354.374475  L 202.914129 361.357268  L 205.050103 341.730095  L 207.186078 288.626578  L 211.458026 141.234196  L 213.594001 94.496486  L 215.729975 81.27462  L 217.86595 91.526693  L 220.001924 106.388007  L 222.137899 111.675735  L 224.273873 105.698076  L 226.409848 96.652615  L 228.545822 93.366913  L 230.681797 97.699845  L 232.817771 104.321388  L 234.953746 106.712627  L 237.08972 103.227487  L 239.225694 97.903181  L 241.361669 96.008583  L 243.497643 98.996999  L 245.633618 103.541151  L 247.769592 105.127422  L 249.905567 102.446249  L 252.041541 98.397141  L 254.177516 97.014386  L 256.31349 99.506279  L 258.449465 103.239543  L 260.585439 104.484149  L 262.721413 102.098608  L 264.857388 98.555216  L 266.993362 97.404005  L 269.129337 99.748831  L 271.265311 103.201245  L 273.401286 104.292537  L 275.53726 101.929672  L 277.673235 98.480948  L 279.809209 97.422051  L 281.945184 99.862597  L 284.081158 103.394845  L 286.217133 104.446527  L 288.353107 101.859938  L 290.489081 98.145448  L 292.625056 97.075035  L 294.76103 99.895316  L 296.897005 103.917914  L 299.032979 105.037392  L 301.168954 101.858682  L 303.304928 97.348295  L 305.440903 96.139506  L 307.576877 99.873877  L 309.712852 105.159934  L 311.848826 106.518588  L 313.984801 101.875913  L 316.120775 95.285813  L 318.256749 93.673327  L 320.392724 99.971941  L 322.528698 109.042023  L 324.664673 111.114785  L 326.800647 101.040524  L 328.936622 85.781719  L 331.072596 82.844113  L 333.208571 109.176942  L 335.344545 168.16524  L 337.48052 244.812435  L 339.616494 313.556019  L 341.752469 353.602786  L 343.888443 360.853848  L 346.024417 348.135192  L 348.160392 334.404935  L 350.296366 331.65268  L 352.432341 339.068346  L 354.568315 347.516354  L 356.70429 349.147501  L 358.840264 343.784383  L 360.976239 337.579172  L 363.112213 336.443459  L 365.248188 340.744122  L 367.384162 345.73864  L 369.520137 346.599109  L 371.656111 342.923752  L 373.792085 338.661388  L 375.92806 337.97422  L 378.064034 341.260266  L 380.200009 345.055844  L 382.335983 345.624843  L 384.471958 342.581452  L 386.607932 339.085338  L 388.743907 338.601589  L 390.879881 341.504996  L 393.015856 344.819427  L 395.15183 345.238916  L 397.287804 342.394755  L 399.423779 339.169555  L 401.559753 338.800409  L 403.695728 341.657004  L 405.831702 344.874473  L 407.967677 345.202584  L 410.103651 342.261412  L 412.239626 338.970382  L 414.3756 338.677386  L 416.511575 341.785232  L 418.647549 345.241711  L 420.783524 345.502514  L 422.919498 342.123228  L 425.055472 338.384185  L 427.191447 338.156141  L 429.327421 341.955654  L 431.463396 346.144634  L 433.59937 346.333821  L 435.735345 341.878652  L 437.871319 336.970802  L 440.007294 336.838336  L 442.143268 342.371605  L 444.279243 348.494569  L 446.415217 348.519473  L 448.551192 341.005463  L 450.687166 332.552068  L 452.82314 332.818157  L 454.959115 344.917706  L 457.095089 359.298069  L 459.231064 357.465982  L 461.367038 324.274491  L 463.503013 260.028739  L 465.638987 182.836061  L 467.774962 118.590309  L 469.910936 85.398818  L 472.046911 83.566731  L 474.182885 97.947094  L 476.31886 110.046643  L 478.454834 110.312732  L 480.590808 101.859337  L 482.726783 94.345327  L 484.862757 94.370231  L 486.998732 100.493195  L 489.134706 106.026464  L 491.270681 105.893998  L 493.406655 100.986148  L 495.54263 96.530979  L 497.678604 96.720166  L 499.814579 100.909146  L 501.950553 104.708659  L 504.086528 104.480615  L 506.222502 100.741572  L 508.358476 97.362286  L 510.494451 97.623089  L 512.630425 101.079568  L 514.7664 104.187414  L 516.902374 103.894418  L 519.038349 100.603388  L 521.174323 97.662216  L 523.310298 97.990327  L 525.446272 101.207796  L 527.582247 104.064391  L 529.718221 103.695245  L 531.854196 100.470045  L 533.99017 97.625884  L 536.126144 98.045373  L 538.262119 101.359804  L 540.398093 104.263211  L 542.534068 103.779462  L 544.670042 100.283348  L 546.806017 97.239957  L 548.941991 97.808956  L 551.077966 101.604534  L 553.21394 104.89058  L 555.349915 104.203412  L 557.485889 99.941048  L 559.621863 96.265691  L 561.757838 97.12616  L 563.893812 102.120678  L 566.029787 106.421341  L 568.165761 105.285628  L 570.301736 99.080417  L 572.43771 93.717299  L 574.573685 95.348446  L 576.709659 103.796454  L 578.845634 111.21212  L 580.981608 108.459865  L 583.117583 94.729608  L 585.253557 82.010952  L 587.389531 89.262014  L 589.525506 129.308781  L 591.66148 198.052365  L 593.797455 274.69956  L 595.933429 333.687858  L 598.069404 360.020687  L 600.205378 357.083081  L 602.341353 341.824276  L 604.477327 331.750015  L 606.613302 333.822777  L 608.749276 342.892859  L 610.885251 349.191473  L 613.021225 347.578987  L 615.157199 340.988887  L 617.293174 336.346212  L 619.429148 337.704866  L 621.565123 342.990923  L 623.701097 346.725294  L 625.837072 345.516505  L 627.973046 341.006118  L 630.109021 337.827408  L 632.244995 338.946886  L 634.38097 342.969484  L 636.516944 345.789765  L 638.652919 344.719352  L 640.788893 341.004862  L 642.924867 338.418273  L 645.060842 339.469955  L 647.196816 343.002203  L 649.332791 345.442749  L 651.468765 344.383852  L 653.60474 340.935128  L 655.740714 338.572263  L 657.876689 339.663555  L 660.012663 343.115969  L 662.148638 345.460795  L 664.284612 344.309584  L 666.420587 340.766192  L 668.556561 338.380651  L 670.692535 339.625257  L 672.82851 343.358521  L 674.964484 345.850414  L 677.100459 344.467659  L 679.236433 340.418551  L 681.372408 337.737378  L 683.508382 339.323649  L 685.644357 343.867801  L 687.780331 346.856217  L 689.916306 344.961619  L 692.05228 339.637313  L 694.188254 336.152173  L 696.324229 338.543412  L 698.460203 345.164955  L 700.596178 349.497887  L 702.732152 346.212185  L 704.868127 337.166724  L 707.004101 331.189065  L 709.140076 336.476793  L 711.27605 351.338107  L 713.412025 361.59018  L 715.547999 348.368314  L 717.683974 301.630604  L 721.955922 154.238222  L 724.091897 101.134705  L 726.227871 81.507532  L 728.363846 88.490325  L 730.49982 103.888163  L 732.635795 111.653921  L 734.771769 107.47589  L 736.907744 98.213144  L 739.043718 93.347298  L 741.179693 96.414569  L 743.315667 103.169692  L 745.451642 106.748074  L 747.587616 104.256544  L 749.72359 98.831669  L 751.859565 95.964362  L 753.995539 98.119342  L 756.131514 102.748604  L 758.267488 105.178058  L 760.403463 103.229192  L 762.539437 99.102516  L 764.675412 96.957978  L 766.811386 98.782834  L 768.947361 102.590449  L 771.083335 104.546528  L 773.21931 102.78716  L 775.355284 99.169825  L 777.491258 97.334882  L 779.627233 99.0759  L 781.763207 102.604005  L 783.899182 104.369711  L 783.899182 104.369711  " clip-path="url(#p2157d5ad19)" style="fill: none; stroke: #cc79a7; stroke-width: 2; stroke-linecap: square"/>
   </g>
   <g id="patch_3">
    <path d="M 113.31 390.2472  L 113.31 52.6176  " style="fill: none; stroke: #bcbcbc; stroke-width: 0.8; stroke-linejoin: miter; stroke-linecap: square"/>
   </g>
   <g id="patch_4">
    <path d="M 815.832 390.2472  L 815.832 52.6176  " style="fill: none; stroke: #bcbcbc; stroke-width: 0.8; stroke-linejoin: miter; stroke-linecap: square"/>
   </g>
   <g id="patch_5">
    <path d="M 113.31 390.2472  L 815.832 390.2472  " style="fill: none; stroke: #bcbcbc; stroke-width: 0.8; stroke-linejoin: miter; stroke-linecap: square"/>
   </g>
   <g id="patch_6">
    <path d="M 113.31 52.6176  L 815.832 52.6176  " style="fill: none; stroke: #bcbcbc; stroke-width: 0.8; stroke-linejoin: miter; stroke-linecap: square"/>
   </g>
   <g id="legend_1">
    <g id="patch_7">
     <path d="M 120.31 149.106662  L 170.71 149.106662  Q 172.71 149.106662 172.71 147.106662  L 172.71 59.6176  Q 172.71 57.6176 170.71 57.6176  L 120.31 57.6176  Q 118.31 57.6176 118.31 59.6176  L 118.31 147.106662  Q 118.31 149.106662 120.31 149.106662  z " style="fill: #eeeeee; opacity: 0.8; stroke: #cccccc; stroke-width: 0.5; stroke-linejoin: miter"/>
    </g>
    <g id="line2d_31">
     <path d="M 122.31 65.716037  L 132.31 65.716037  L 142.31 65.716037  " style="fill: none; stroke: #348abd; stroke-width: 2; stroke-linecap: square"/>
    </g>
    <g id="text_13">
     <!-- $f(x)$ -->
     <g transform="translate(150.31 69.216037)scale(0.1 -0.1)">
      <defs>
       <path id="Cmmi10-66" d="M 622 -1056  Q 741 -1147 909 -1147  Q 1138 -1147 1281 -641  Q 1341 -397 1606 966  L 1900 2534  L 1350 2534  Q 1288 2534 1288 2619  Q 1313 2759 1369 2759  L 1941 2759  L 2016 3175  Q 2053 3369 2084 3508  Q 2116 3647 2152 3765  Q 2188 3884 2259 4031  Q 2369 4241 2555 4377  Q 2741 4513 2956 4513  Q 3097 4513 3230 4461  Q 3363 4409 3447 4306  Q 3531 4203 3531 4063  Q 3531 3900 3423 3779  Q 3316 3659 3163 3659  Q 3059 3659 2986 3723  Q 2913 3788 2913 3891  Q 2913 4031 3008 4136  Q 3103 4241 3244 4256  Q 3125 4347 2950 4347  Q 2853 4347 2767 4256  Q 2681 4166 2656 4063  Q 2616 3900 2478 3181  L 2400 2759  L 3059 2759  Q 3122 2759 3122 2675  Q 3119 2659 3109 2620  Q 3100 2581 3083 2557  Q 3066 2534 3041 2534  L 2356 2534  L 2059 972  Q 2003 631 1929 279  Q 1856 -72 1723 -442  Q 1591 -813 1384 -1063  Q 1178 -1313 897 -1313  Q 681 -1313 511 -1189  Q 341 -1066 341 -863  Q 341 -700 445 -579  Q 550 -459 709 -459  Q 816 -459 887 -523  Q 959 -588 959 -691  Q 959 -828 857 -942  Q 756 -1056 622 -1056  z " transform="scale(0.015625)"/>
       <path id="Cmr10-28" d="M 1984 -1588  Q 1628 -1306 1370 -942  Q 1113 -578 948 -165  Q 784 247 703 697  Q 622 1147 622 1600  Q 622 2059 703 2509  Q 784 2959 951 3375  Q 1119 3791 1378 4153  Q 1638 4516 1984 4788  Q 1984 4800 2016 4800  L 2075 4800  Q 2094 4800 2109 4783  Q 2125 4766 2125 4744  Q 2125 4716 2113 4703  Q 1800 4397 1592 4047  Q 1384 3697 1257 3301  Q 1131 2906 1075 2482  Q 1019 2059 1019 1600  Q 1019 -434 2106 -1491  Q 2125 -1509 2125 -1544  Q 2125 -1559 2108 -1579  Q 2091 -1600 2075 -1600  L 2016 -1600  Q 1984 -1600 1984 -1588  z " transform="scale(0.015625)"/>
       <path id="Cmmi10-78" d="M 500 184  Q 613 97 819 97  Q 1019 97 1172 289  Q 1325 481 1381 709  L 1672 1844  Q 1741 2153 1741 2266  Q 1741 2425 1652 2544  Q 1563 2663 1403 2663  Q 1200 2663 1022 2536  Q 844 2409 722 2214  Q 600 2019 550 1819  Q 538 1778 500 1778  L 422 1778  Q 372 1778 372 1838  L 372 1856  Q 434 2094 584 2320  Q 734 2547 951 2687  Q 1169 2828 1416 2828  Q 1650 2828 1839 2703  Q 2028 2578 2106 2363  Q 2216 2559 2386 2693  Q 2556 2828 2759 2828  Q 2897 2828 3040 2779  Q 3184 2731 3275 2631  Q 3366 2531 3366 2381  Q 3366 2219 3261 2101  Q 3156 1984 2994 1984  Q 2891 1984 2822 2050  Q 2753 2116 2753 2216  Q 2753 2350 2845 2451  Q 2938 2553 3066 2572  Q 2950 2663 2747 2663  Q 2541 2663 2389 2472  Q 2238 2281 2175 2047  L 1894 916  Q 1825 659 1825 494  Q 1825 331 1917 214  Q 2009 97 2163 97  Q 2463 97 2698 361  Q 2934 625 3009 941  Q 3022 978 3059 978  L 3138 978  Q 3163 978 3178 961  Q 3194 944 3194 922  Q 3194 916 3188 903  Q 3097 522 2806 225  Q 2516 -72 2150 -72  Q 1916 -72 1727 54  Q 1538 181 1459 397  Q 1359 209 1182 68  Q 1006 -72 806 -72  Q 669 -72 523 -23  Q 378 25 287 125  Q 197 225 197 378  Q 197 528 301 651  Q 406 775 563 775  Q 669 775 741 711  Q 813 647 813 544  Q 813 409 723 309  Q 634 209 500 184  z " transform="scale(0.015625)"/>
       <path id="Cmr10-29" d="M 416 -1600  Q 359 -1600 359 -1544  Q 359 -1516 372 -1503  Q 1466 -434 1466 1600  Q 1466 3634 384 4691  Q 359 4706 359 4744  Q 359 4766 376 4783  Q 394 4800 416 4800  L 475 4800  Q 494 4800 506 4788  Q 966 4425 1272 3906  Q 1578 3388 1720 2800  Q 1863 2213 1863 1600  Q 1863 1147 1786 708  Q 1709 269 1542 -157  Q 1375 -584 1119 -945  Q 863 -1306 506 -1588  Q 494 -1600 475 -1600  L 416 -1600  z " transform="scale(0.015625)"/>
      </defs>
      <use xlink:href="#Cmmi10-66"/>
      <use xlink:href="#Cmr10-28" transform="translate(48.876953 0)"/>
      <use xlink:href="#Cmmi10-78" transform="translate(87.695312 0)"/>
      <use xlink:href="#Cmr10-29" transform="translate(144.775391 0)"/>
     </g>
    </g>
    <g id="line2d_32">
     <path d="M 122.31 80.814475  L 132.31 80.814475  L 142.31 80.814475  " style="fill: none; stroke: #a60628; stroke-width: 2; stroke-linecap: square"/>
    </g>
    <g id="text_14">
     <!-- $S_{1}$ -->
     <g transform="translate(150.31 84.314475)scale(0.1 -0.1)">
      <defs>
       <path id="Cmmi10-53" d="M 391 -141  Q 372 -141 356 -119  Q 341 -97 341 -78  L 709 1416  Q 722 1453 763 1453  L 838 1453  Q 863 1453 877 1434  Q 891 1416 891 1388  Q 838 1169 838 997  Q 838 534 1156 309  Q 1475 84 1959 84  Q 2169 84 2372 187  Q 2575 291 2726 456  Q 2878 622 2968 826  Q 3059 1031 3059 1241  Q 3059 1466 2940 1642  Q 2822 1819 2613 1869  L 1831 2075  Q 1516 2159 1328 2414  Q 1141 2669 1141 2988  Q 1141 3372 1369 3728  Q 1597 4084 1964 4298  Q 2331 4513 2713 4513  Q 3006 4513 3251 4405  Q 3497 4297 3628 4063  L 3994 4494  Q 4031 4513 4038 4513  L 4078 4513  Q 4103 4513 4118 4491  Q 4134 4469 4134 4447  L 3763 2963  Q 3753 2919 3713 2919  L 3634 2919  Q 3578 2919 3578 2988  Q 3609 3191 3609 3341  Q 3609 3638 3507 3858  Q 3406 4078 3201 4192  Q 2997 4306 2694 4306  Q 2438 4306 2184 4159  Q 1931 4013 1775 3769  Q 1619 3525 1619 3263  Q 1619 3056 1739 2897  Q 1859 2738 2059 2681  L 2841 2478  Q 3053 2422 3211 2280  Q 3369 2138 3450 1942  Q 3531 1747 3531 1516  Q 3531 1213 3403 917  Q 3275 622 3045 378  Q 2816 134 2525 -3  Q 2234 -141 1931 -141  Q 1169 -141 838 306  L 481 -122  Q 444 -141 434 -141  L 391 -141  z " transform="scale(0.015625)"/>
       <path id="Cmr10-31" d="M 594 0  L 594 225  Q 1394 225 1394 428  L 1394 3788  Q 1063 3628 556 3628  L 556 3853  Q 1341 3853 1741 4263  L 1831 4263  Q 1853 4263 1873 4245  Q 1894 4228 1894 4206  L 1894 428  Q 1894 225 2694 225  L 2694 0  L 594 0  z " transform="scale(0.015625)"/>
      </defs>
      <use xlink:href="#Cmmi10-53" transform="translate(0 0.484375)"/>
      <use xlink:href="#Cmr10-31" transform="translate(61.279297 -16.521875)scale(0.7)"/>
     </g>
    </g>
    <g id="line2d_33">
     <path d="M 122.31 95.4926  L 132.31 95.4926  L 142.31 95.4926  " style="fill: none; stroke: #7a68a6; stroke-width: 2; stroke-linecap: square"/>
    </g>
    <g id="text_15">
     <!-- $S_{2}$ -->
     <g transform="translate(150.31 98.9926)scale(0.1 -0.1)">
      <defs>
       <path id="Cmr10-32" d="M 319 0  L 319 172  Q 319 188 331 206  L 1325 1306  Q 1550 1550 1690 1715  Q 1831 1881 1968 2097  Q 2106 2313 2186 2536  Q 2266 2759 2266 3009  Q 2266 3272 2169 3511  Q 2072 3750 1880 3894  Q 1688 4038 1416 4038  Q 1138 4038 916 3870  Q 694 3703 603 3438  Q 628 3444 672 3444  Q 816 3444 917 3347  Q 1019 3250 1019 3097  Q 1019 2950 917 2848  Q 816 2747 672 2747  Q 522 2747 420 2851  Q 319 2956 319 3097  Q 319 3338 409 3548  Q 500 3759 670 3923  Q 841 4088 1055 4175  Q 1269 4263 1509 4263  Q 1875 4263 2190 4108  Q 2506 3953 2690 3670  Q 2875 3388 2875 3009  Q 2875 2731 2753 2481  Q 2631 2231 2440 2026  Q 2250 1822 1953 1562  Q 1656 1303 1563 1216  L 838 519  L 1453 519  Q 1906 519 2211 526  Q 2516 534 2534 550  Q 2609 631 2688 1141  L 2875 1141  L 2694 0  L 319 0  z " transform="scale(0.015625)"/>
      </defs>
      <use xlink:href="#Cmmi10-53" transform="translate(0 0.484375)"/>
      <use xlink:href="#Cmr10-32" transform="translate(61.279297 -16.521875)scale(0.7)"/>
     </g>
    </g>
    <g id="line2d_34">
     <path d="M 122.31 110.170725  L 132.31 110.170725  L 142.31 110.170725  " style="fill: none; stroke: #467821; stroke-width: 2; stroke-linecap: square"/>
    </g>
    <g id="text_16">
     <!-- $S_{5}$ -->
     <g transform="translate(150.31 113.670725)scale(0.1 -0.1)">
      <defs>
       <path id="Cmr10-35" d="M 556 728  Q 622 541 758 387  Q 894 234 1080 148  Q 1266 63 1466 63  Q 1928 63 2103 422  Q 2278 781 2278 1294  Q 2278 1516 2270 1667  Q 2263 1819 2228 1959  Q 2169 2184 2020 2353  Q 1872 2522 1656 2522  Q 1441 2522 1286 2456  Q 1131 2391 1034 2303  Q 938 2216 863 2119  Q 788 2022 769 2016  L 697 2016  Q 681 2016 657 2036  Q 634 2056 634 2075  L 634 4213  Q 634 4228 654 4245  Q 675 4263 697 4263  L 716 4263  Q 1147 4056 1631 4056  Q 2106 4056 2547 4263  L 2566 4263  Q 2588 4263 2606 4247  Q 2625 4231 2625 4213  L 2625 4153  Q 2625 4122 2613 4122  Q 2394 3831 2064 3668  Q 1734 3506 1381 3506  Q 1125 3506 856 3578  L 856 2369  Q 1069 2541 1236 2614  Q 1403 2688 1663 2688  Q 2016 2688 2295 2484  Q 2575 2281 2725 1954  Q 2875 1628 2875 1288  Q 2875 903 2686 575  Q 2497 247 2172 53  Q 1847 -141 1466 -141  Q 1150 -141 886 21  Q 622 184 470 459  Q 319 734 319 1044  Q 319 1188 412 1278  Q 506 1369 647 1369  Q 788 1369 883 1276  Q 978 1184 978 1044  Q 978 906 883 811  Q 788 716 647 716  Q 625 716 597 720  Q 569 725 556 728  z " transform="scale(0.015625)"/>
      </defs>
      <use xlink:href="#Cmmi10-53" transform="translate(0 0.484375)"/>
      <use xlink:href="#Cmr10-35" transform="translate(61.279297 -16.521875)scale(0.7)"/>
     </g>
    </g>
    <g id="line2d_35">
     <path d="M 122.31 124.84885  L 132.31 124.84885  L 142.31 124.84885  " style="fill: none; stroke: #d55e00; stroke-width: 2; stroke-linecap: square"/>
    </g>
    <g id="text_17">
     <!-- $S_{10}$ -->
     <g transform="translate(150.31 128.34885)scale(0.1 -0.1)">
      <defs>
       <path id="Cmr10-30" d="M 1600 -141  Q 816 -141 533 504  Q 250 1150 250 2041  Q 250 2597 351 3087  Q 453 3578 754 3920  Q 1056 4263 1600 4263  Q 2022 4263 2290 4056  Q 2559 3850 2700 3523  Q 2841 3197 2892 2823  Q 2944 2450 2944 2041  Q 2944 1491 2842 1011  Q 2741 531 2444 195  Q 2147 -141 1600 -141  z M 1600 25  Q 1956 25 2131 390  Q 2306 756 2347 1200  Q 2388 1644 2388 2144  Q 2388 2625 2347 3031  Q 2306 3438 2132 3767  Q 1959 4097 1600 4097  Q 1238 4097 1063 3765  Q 888 3434 847 3029  Q 806 2625 806 2144  Q 806 1788 823 1472  Q 841 1156 916 820  Q 991 484 1158 254  Q 1325 25 1600 25  z " transform="scale(0.015625)"/>
      </defs>
      <use xlink:href="#Cmmi10-53" transform="translate(0 0.484375)"/>
      <use xlink:href="#Cmr10-31" transform="translate(61.279297 -16.521875)scale(0.7)"/>
      <use xlink:href="#Cmr10-30" transform="translate(96.279297 -16.521875)scale(0.7)"/>
     </g>
    </g>
    <g id="line2d_36">
     <path d="M 122.31 139.526975  L 132.31 139.526975  L 142.31 139.526975  " style="fill: none; stroke: #cc79a7; stroke-width: 2; stroke-linecap: square"/>
    </g>
    <g id="text_18">
     <!-- $S_{20}$ -->
     <g transform="translate(150.31 143.026975)scale(0.1 -0.1)">
      <use xlink:href="#Cmmi10-53" transform="translate(0 0.484375)"/>
      <use xlink:href="#Cmr10-32" transform="translate(61.279297 -16.521875)scale(0.7)"/>
      <use xlink:href="#Cmr10-30" transform="translate(96.279297 -16.521875)scale(0.7)"/>
     </g>
    </g>
   </g>
  </g>
 </g>
 <defs>
  <clipPath id="p2157d5ad19">
   <rect x="113.31" y="52.6176" width="702.522" height="337.6296"/>
  </clipPath>
 </defs>
</svg>